# xmcd CD database file
#
# Track frame offsets:
#	150
#	15345
#	27032
#	35585
#	46985
#	55615
#	69062
#	89485
#	103842
#	118362
#	127295
#	142510
#	154234
#
# Disc length: 2179 seconds
#
# Revision: 6
# Processed by: cddbd v1.5.2PL0 Copyright (c) Steve Scherf et al.
# Submitted via: CDex 1.70beta2
#
DISCID=a608810d
DTITLE=GUITAR WOLF - JET GENERATION
DYEAR=1999
DGENRE=Punk Rock
TTITLE0=ジェット ジェネレーション
TTITLE1=フジヤマ アタック
TTITLE2=カミナリ ワン (Jet version)
TTITLE3=カンフーラモーン
TTITLE4=ティーンエイジ U.F.O.
TTITLE5=宇宙人ガール
TTITLE6=爆音ブラッド
TTITLE7=ガクランライダー
TTITLE8=冷蔵庫ゼロ
TTITLE9=島根スリム
TTITLE10=サイボーグキッズ
TTITLE11=SUMMERTIME BLUES
TTITLE12=環七フィーバー (Jet version)
EXTD=YEAR: 1999
EXTT0=
EXTT1=
EXTT2=
EXTT3=
EXTT4=
EXTT5=
EXTT6=
EXTT7=
EXTT8=
EXTT9=
EXTT10=
EXTT11=
EXTT12=
PLAYORDER=
